<?xml version="1.0" encoding="UTF-8" standalone="no" ?>
<!DOCTYPE svg PUBLIC "-//W3C//DTD SVG 1.1//EN" "http://www.w3.org/Graphics/SVG/1.1/DTD/svg11.dtd">
<svg xmlns="http://www.w3.org/2000/svg" xmlns:xlink="http://www.w3.org/1999/xlink" version="1.1" width="500" height="500" viewBox="0 0 500 500" xml:space="preserve">
<desc>Created with Fabric.js 4.6.0</desc>
<defs>
</defs>
<g transform="matrix(0.89 0 0 0.89 250 249.7)" id="UxuJ88jQ1t_43H4KMEZOQ"  >
<path style="stroke: none; stroke-width: 1; stroke-dasharray: none; stroke-linecap: butt; stroke-dashoffset: 0; stroke-linejoin: miter; stroke-miterlimit: 4; fill: rgb(0,0,0); fill-rule: evenodd; opacity: 1;" vector-effect="non-scaling-stroke"  transform=" translate(-349.97, -279.76)" d="M 507.36 92.961 C 498.39910000000003 86.8008 467.04 68.32 456.962 63.84 C 441.841 56.558800000000005 431.763 52.641000000000005 416.08299999999997 48.160000000000004 C 400.40299999999996 43.679500000000004 382.481 44.8006 373.524 59.359 C 365.1256 74.48 370.1646 92.961 384.723 101.918 C 389.2035 104.1563 397.60200000000003 108.07820000000001 409.922 112.55900000000001 C 418.8829 115.9184 427.84400000000005 119.84020000000001 436.80100000000004 124.32100000000001 C 441.84010000000006 126.55930000000001 446.32050000000004 128.8015 451.36000000000007 131.6022 C 455.8405000000001 134.40300000000002 460.32090000000005 137.2038 464.80100000000004 140.56310000000002 C 473.1994 146.1647 481.03900000000004 151.76210000000003 488.321 157.92210000000003 C 498.399 166.32050000000004 505.68 171.92210000000003 510.161 174.16010000000003 C 524.72 182.55850000000004 543.763 177.51950000000002 552.72 162.96110000000002 C 561.1184000000001 147.8401 553.27859 132.16010000000003 541.5210000000001 120.40210000000002 C 529.201 109.19910000000002 520.802 102.48010000000002 507.3610000000001 92.96110000000002 z M 235.76 108.078 L 348.32 21.281000000000006 C 376.32 -0.558999999999994 413.84 -6.159999999999993 446.879 6.1600000000000055 L 467.598 13.999800000000006 C 495.039 24.077800000000003 520.239 38.640800000000006 542.6370000000001 57.12080000000001 L 559.9960000000001 71.1208 C 587.4370000000001 93.5188 600.8750000000001 128.8008 596.3940000000001 164.0818 L 577.9140000000001 305.2018 C 580.7148000000001 350.5608 570.6328000000001 397.04179999999997 545.9920000000001 439.6018 C 479.9220000000001 554.4018 334.88200000000006 593.6018 221.20200000000006 528.0788 C 107.52200000000005 462.5588 68.88200000000006 316.9588 134.96400000000006 202.7188 C 159.60500000000005 160.1598 194.88200000000006 128.23879999999997 235.76400000000007 108.07779999999998 z" stroke-linecap="round" />
</g>
</svg>